<svg width="114" height="68" viewBox="0 0 114 68" fill="none" xmlns="http://www.w3.org/2000/svg">
<path d="M25.9434 18.5499C25.3457 23.1571 29.0411 27.4333 29.0411 27.4333C29.0411 27.4333 33.7073 24.2402 34.305 19.6329C34.9026 15.0228 31.2073 10.7466 31.2073 10.7466C31.2073 10.7466 26.5438 13.9454 25.9434 18.5499ZM21.5578 34.0356C23.5107 38.2529 28.9204 39.9084 28.9204 39.9084C28.9204 39.9084 31.1652 34.7259 29.2123 30.5086C27.2594 26.2913 21.8496 24.6331 21.8496 24.6331C21.8496 24.6331 19.6049 29.8184 21.5578 34.0356ZM23.8614 48.8648C27.5876 51.6511 33.1377 50.5456 33.1377 50.5456C33.1377 50.5456 32.6439 44.9197 28.9176 42.1335C25.1914 39.3472 19.6413 40.4527 19.6413 40.4527C19.6413 40.4527 20.1352 46.0786 23.8614 48.8648ZM33.9879 60.9246C38.2108 62.8831 43.4129 60.658 43.4129 60.658C43.4129 60.658 41.7659 55.2567 37.543 53.2953C33.3201 51.3368 28.118 53.5647 28.118 53.5647C28.118 53.5647 29.765 58.9661 33.9879 60.9246ZM38.6682 8.32795C35.273 11.507 35.4021 17.1497 35.4021 17.1497C35.4021 17.1497 41.0419 17.6436 44.4371 14.4645C47.8322 11.2854 47.7032 5.6399 47.7032 5.6399C47.7032 5.6399 42.0633 5.14887 38.6682 8.32795Z" stroke="#829460" stroke-width="4" stroke-linecap="round" stroke-linejoin="round"/>
<path d="M93.2624 18.5499C93.8601 23.1571 90.1647 27.4333 90.1647 27.4333C90.1647 27.4333 85.4985 24.2402 84.898 19.6329C84.3003 15.02 87.9985 10.7466 87.9985 10.7466C87.9985 10.7466 92.6619 13.9426 93.2624 18.5499ZM97.6424 34.0356C95.6895 38.2529 90.2797 39.9084 90.2797 39.9084C90.2797 39.9084 88.035 34.7259 89.9879 30.5086C91.9408 26.2913 97.3534 24.6331 97.3534 24.6331C97.3534 24.6331 99.5981 29.8184 97.6424 34.0356ZM95.3416 48.8648C91.6153 51.6511 86.0653 50.5456 86.0653 50.5456C86.0653 50.5456 86.5591 44.9197 90.2853 42.1335C94.0116 39.3472 99.5617 40.4527 99.5617 40.4527C99.5617 40.4527 99.0678 46.0786 95.3416 48.8648ZM85.2151 60.9246C80.9922 62.8831 75.79 60.658 75.79 60.658C75.79 60.658 77.4371 55.2567 81.66 53.2953C85.8829 51.3368 91.0822 53.5647 91.0822 53.5647C91.0822 53.5647 89.438 58.9661 85.2151 60.9246ZM80.5348 8.32795C83.93 11.507 83.8009 17.1497 83.8009 17.1497C83.8009 17.1497 78.161 17.6436 74.7659 14.4645C71.3707 11.2854 71.4998 5.6399 71.4998 5.6399C71.4998 5.6399 77.1397 5.14887 80.5348 8.32795Z" stroke="#829460" stroke-width="4" stroke-linecap="round" stroke-linejoin="round"/>
<path d="M45.0356 32.5345L75.6661 26.8768L59.457 51.7027L56.9307 39.0679L45.0356 32.5345Z" fill="#F2F0E9"/>
</svg>
